<?xml version="1.0" encoding="UTF-8"?>
<svg id="Layer_1" data-name="Layer 1" xmlns="http://www.w3.org/2000/svg" viewBox="0 0 122.88 122.88">
  <defs>
    <style>
      .cls-1 {
        fill: #fff;
      }

      .cls-1, .cls-2 {
        fill-rule: evenodd;
        stroke-width: 0px;
      }

      .cls-2 {
        fill: #004ba6;
      }
    </style>
  </defs>
  <path class="cls-2" d="M21.87,0h79.13c12.06.03,21.84,9.81,21.87,21.87v79.13c-.03,12.07-9.8,21.85-21.87,21.88H21.87c-12.07-.03-21.84-9.81-21.87-21.88V21.87C.03,9.81,9.81.03,21.87,0Z"/>
  <path class="cls-1" d="M43.93,55.89c4.93,8.89,11.38,17.11,23.31,23.2,1.79.92,3.42,0,4.82-1.45,2.08-2.06,5-7.9,8.49-6.27l13,7.5c2.66,1.8,1.87,6,0,9.24-2.57,4.54-7.77,6-12.68,6.76-7.49,1.13-14.21-1.41-22.33-6.45-2-1.21-4.09-2.51-6.19-4.09-13.31-10-27-28.2-24.46-44.3,1.11-7.16,5.84-13.03,15.11-12.2l8.32,14.17c1.7,2.12.45,4.09-2.14,6s-6.85,4.16-5.25,7.93v-.04Z"/>
</svg>